# xmcd
#
# Track frame offsets:
#	150
#	26026
#	47980
#	60253
#	83688
#	97390
#	126808
#	140904
#	156606
#	175935
#	189962
#	210346
#
# Disc length: 3020 seconds
#
# Revision: 0
# Processed by: cddbd v1.5.2PL0 Copyright (c) Steve Scherf et al.
# Submitted via: EasyCDDAExtractor 2010.4.0.0
#
DISCID=ab0bca0c
DTITLE=Senzus - 2005
DYEAR=2005
DGENRE=Pop-Folk
TTITLE0=Polka mix (Darmo sa na mňa, Naša pani šenkárečka)
TTITLE1=Stratená mladosť
TTITLE2=Okolo mlyna
TTITLE3=Každý večer, keď usínam
TTITLE4=Na hodech muzika
TTITLE5=Cigánsky mix I. (Zabíjačka, Erža odpusť, Červený tobogán)
TTITLE6=Erika
TTITLE7=Český mix (Dajána, Což takhle dát si špenát, Jó třešně zrály)
TTITLE8=Nesneží (Rap mix 2004)
TTITLE9=Jede, jede mašinka
TTITLE10=Cigánsky mix II. (Čim, čim, čim, Sára, Iba pre vás zahráme)
TTITLE11=Hey Babe
EXTD=
EXTT0=
EXTT1=
EXTT2=
EXTT3=
EXTT4=
EXTT5=
EXTT6=
EXTT7=
EXTT8=
EXTT9=
EXTT10=
EXTT11=
PLAYORDER=
